Le celebri avventure del commissario Maigret con Gino Cervi.

Format                                   : MPEG-4
Format profile                           : Base Media / Version 2
Codec ID                                 : mp42
File size                                : 755 MiB
Duration                                 : 1h 18mn
Overall bit rate mode                    : Variable
Overall bit rate                         : 1 354 Kbps
Encoded date                             : UTC 2013-03-19 10:40:17
Tagged date                              : UTC 2013-03-19 11:23:38
Writing application                      : HandBrake 0.9.8 2012071700

Video
ID                                       : 1
Format                                   : AVC
Format/Info                              : Advanced Video Codec
Format profile                           : Main@L3.0
Format settings, CABAC                   : Yes
Format settings, ReFrames                : 4 frames
Codec ID                                 : avc1
Codec ID/Info                            : Advanced Video Coding
Duration                                 : 1h 18mn
Bit rate mode                            : Variable
Bit rate                                 : 1 200 Kbps
Width                                    : 720 pixels
Height                                   : 576 pixels
Display aspect ratio                     : 5:4
Frame rate mode                          : Constant
Frame rate                               : 25.000 fps
Standard                                 : PAL
Color space                              : YUV
Chroma subsampling                       : 4:2:0
Bit depth                                : 8 bits
Scan type                                : Progressive
Bits/(Pixel*Frame)                       : 0.116
Stream size                              : 670 MiB (89%)
Writing library                          : x264 core 120


Audio
ID                                       : 2
Format                                   : AAC
Format/Info                              : Advanced Audio Codec
Format profile                           : LC
Codec ID                                 : 40
Duration                                 : 1h 18mn
Bit rate mode                            : Variable
Bit rate                                 : 149 Kbps
Maximum bit rate                         : 177 Kbps
Channel(s)                               : 1 channel
Channel positions                        : Front: C
Sampling rate                            : 48.0 KHz
Compression mode                         : Lossy
Delay relative to video                  : 80ms
Stream size                              : 83.3 MiB (11%)
Encoded date                             : UTC 2013-03-19 10:40:17
Tagged date                              : UTC 2013-03-19 11:23:38

